<svg width="81" height="81" viewBox="0 0 81 81" fill="none" xmlns="http://www.w3.org/2000/svg">
<path fill-rule="evenodd" clip-rule="evenodd" d="M30.2647 23.0271C28.78 21.5424 26.7664 20.7084 24.6667 20.7084C22.5671 20.7084 20.5535 21.5424 19.0688 23.0271C17.5842 24.5118 16.7501 26.5254 16.7501 28.625V48.4167C16.7501 50.5163 17.5842 52.53 19.0688 54.0146C20.5535 55.4993 22.5671 56.3334 24.6667 56.3334C26.7664 56.3334 28.78 55.4993 30.2647 54.0146C31.7493 52.53 32.5834 50.5163 32.5834 48.4167V28.625C32.5834 26.5254 31.7493 24.5118 30.2647 23.0271ZM28.6251 71.85C39.8667 69.95 48.4167 60.1729 48.4167 48.4167H40.5001C40.5001 52.6159 38.8319 56.6432 35.8626 59.6125C32.8933 62.5819 28.866 64.25 24.6667 64.25C20.4675 64.25 16.4402 62.5819 13.4709 59.6125C10.5016 56.6432 8.83342 52.6159 8.83341 48.4167H0.916748C0.916748 60.1729 9.46675 69.95 20.7084 71.85V80.0834H28.6251V71.85ZM60.9647 47.0709L77.748 30.2479C79.2126 28.8229 80.0834 26.8438 80.0834 24.6667V8.83335C80.0834 6.73372 79.2493 4.72009 77.7647 3.23542C76.28 1.75076 74.2664 0.916687 72.1667 0.916687H48.4167C46.3171 0.916687 44.3035 1.75076 42.8188 3.23542C41.3342 4.72009 40.5001 6.73372 40.5001 8.83335V24.6667C40.5001 26.7663 41.3342 28.78 42.8188 30.2646C44.3035 31.7493 46.3171 32.5834 48.4167 32.5834H64.9626L60.9647 47.0709ZM51 6C48.2386 6 46 8.23858 46 11V22C46 24.7614 48.2386 27 51 27H69C71.7614 27 74 24.7614 74 22V11C74 8.23858 71.7614 6 69 6H51Z" fill="white"/>
</svg>
