<svg width="50" height="50" viewBox="0 0 50 50" fill="none" xmlns="http://www.w3.org/2000/svg">
<path d="M16.9418 5.21655L9.20844 18.7499H6.25011C5.92989 18.7502 5.61406 18.8243 5.32709 18.9664C5.04013 19.1085 4.78973 19.3148 4.59532 19.5692C4.40091 19.8236 4.26771 20.1194 4.20603 20.4337C4.14436 20.7479 4.15588 21.0721 4.23969 21.3811L10.0709 42.7624C10.3127 43.6438 10.8369 44.4215 11.5632 44.9762C12.2896 45.531 13.1778 45.832 14.0918 45.8332H35.9105C37.7814 45.8332 39.4355 44.5728 39.9314 42.7603L45.7626 21.3791C45.8474 21.0699 45.8596 20.7453 45.7982 20.4307C45.7367 20.116 45.6034 19.8198 45.4085 19.5653C45.2137 19.3107 44.9626 19.1046 44.6749 18.9632C44.3872 18.8218 44.0707 18.7487 43.7501 18.7499H40.7918L33.0584 5.21655L29.4418 7.28322L35.9939 18.7499H14.0064L20.5584 7.28322L16.9418 5.21655ZM29.1668 27.0832H33.3334V37.4999H29.1668V27.0832ZM16.6668 27.0832H20.8334V37.4999H16.6668V27.0832Z" fill="white"/>
</svg>
