<svg width="218" height="157" viewBox="0 0 218 157" fill="none" xmlns="http://www.w3.org/2000/svg">
<path d="M157.5 50C157.5 76.7858 135.786 98.5 109 98.5C82.2142 98.5 60.5 76.7858 60.5 50C60.5 23.2142 82.2142 1.5 109 1.5C135.786 1.5 157.5 23.2142 157.5 50Z" stroke="white" stroke-width="3"/>
<path d="M114.068 43.1818H102.932L108.5 50L114.068 43.1818Z" fill="white"/>
<path d="M84 80H133L126.131 71.5888L108.5 66.5421L90.8692 71.5888L84 80Z" fill="white"/>
<path d="M102.932 43.1818L84 20H133L114.068 43.1818M102.932 43.1818H114.068M102.932 43.1818L108.5 50M114.068 43.1818L108.5 50M108.5 50L90.8692 71.5888M108.5 50L126.131 71.5888M90.8692 71.5888L84 80H133L126.131 71.5888M90.8692 71.5888L108.5 66.5421L126.131 71.5888" stroke="white" stroke-width="3"/>
<path d="M159 50H197" stroke="white" stroke-width="3"/>
<path d="M21 50H59" stroke="white" stroke-width="3"/>
<path d="M3.32 147V119H9.8V147H3.32ZM16.445 147V119H29.165C32.205 119 34.885 119.587 37.205 120.76C39.525 121.907 41.3383 123.52 42.645 125.6C43.9517 127.68 44.605 130.147 44.605 133C44.605 135.827 43.9517 138.293 42.645 140.4C41.3383 142.48 39.525 144.107 37.205 145.28C34.885 146.427 32.205 147 29.165 147H16.445ZM22.925 141.68H28.845C30.7117 141.68 32.325 141.333 33.685 140.64C35.0717 139.92 36.1383 138.907 36.885 137.6C37.6583 136.293 38.045 134.76 38.045 133C38.045 131.213 37.6583 129.68 36.885 128.4C36.1383 127.093 35.0717 126.093 33.685 125.4C32.325 124.68 30.7117 124.32 28.845 124.32H22.925V141.68ZM67.54 147L58.38 119H65.1L73.06 143.8H69.7L78.02 119H84.02L92.02 143.8H88.78L96.94 119H103.14L93.98 147H87.02L79.94 125.24H81.78L74.5 147H67.54ZM102.14 147L114.62 119H121.02L133.54 147H126.74L116.5 122.28H119.06L108.78 147H102.14ZM108.38 141L110.1 136.08H124.5L126.26 141H108.38ZM140.839 147V124.28H131.879V119H156.279V124.28H147.319V147H140.839ZM172.775 147.48C170.615 147.48 168.601 147.133 166.735 146.44C164.895 145.72 163.295 144.707 161.935 143.4C160.575 142.093 159.508 140.56 158.735 138.8C157.988 137.04 157.615 135.107 157.615 133C157.615 130.893 157.988 128.96 158.735 127.2C159.508 125.44 160.575 123.907 161.935 122.6C163.321 121.293 164.935 120.293 166.775 119.6C168.615 118.88 170.628 118.52 172.815 118.52C175.241 118.52 177.428 118.947 179.375 119.8C181.348 120.627 183.001 121.853 184.335 123.48L180.175 127.32C179.215 126.227 178.148 125.413 176.975 124.88C175.801 124.32 174.521 124.04 173.135 124.04C171.828 124.04 170.628 124.253 169.535 124.68C168.441 125.107 167.495 125.72 166.695 126.52C165.895 127.32 165.268 128.267 164.815 129.36C164.388 130.453 164.175 131.667 164.175 133C164.175 134.333 164.388 135.547 164.815 136.64C165.268 137.733 165.895 138.68 166.695 139.48C167.495 140.28 168.441 140.893 169.535 141.32C170.628 141.747 171.828 141.96 173.135 141.96C174.521 141.96 175.801 141.693 176.975 141.16C178.148 140.6 179.215 139.76 180.175 138.64L184.335 142.48C183.001 144.107 181.348 145.347 179.375 146.2C177.428 147.053 175.228 147.48 172.775 147.48ZM207.911 119H214.391V147H207.911V119ZM195.191 147H188.711V119H195.191V147ZM208.391 135.52H194.711V130.04H208.391V135.52Z" fill="white"/>
</svg>
