<svg width="70" height="39" viewBox="0 0 70 39" fill="none" xmlns="http://www.w3.org/2000/svg">
<path d="M53.8864 19.5C53.8864 29.6989 45.4492 38 35 38C24.5508 38 16.1136 29.6989 16.1136 19.5C16.1136 9.30114 24.5508 1 35 1C45.4492 1 53.8864 9.30114 53.8864 19.5Z" stroke="white" stroke-width="2"/>
<path d="M37.0158 16.841H32.5865L34.8011 19.5L37.0158 16.841Z" fill="white"/>
<path d="M25.0568 31.2H44.5455L41.8134 27.9197L34.8011 25.9515L27.7889 27.9197L25.0568 31.2Z" fill="white"/>
<path d="M32.5865 16.841L25.0568 7.80005H44.5455L37.0158 16.841M32.5865 16.841H37.0158M32.5865 16.841L34.8011 19.5M37.0158 16.841L34.8011 19.5M34.8011 19.5L27.7889 27.9197M34.8011 19.5L41.8134 27.9197M27.7889 27.9197L25.0568 31.2H44.5455L41.8134 27.9197M27.7889 27.9197L34.8011 25.9515L41.8134 27.9197" stroke="white" stroke-width="2"/>
<path d="M54.8864 19.5H70" stroke="white" stroke-width="2"/>
<path d="M0 19.5H15.1136" stroke="white" stroke-width="2"/>
</svg>
